<svg width="512" height="512" viewBox="0 0 512 512" fill="none" xmlns="http://www.w3.org/2000/svg">
<path d="M0 0H512V512H0V0Z" fill="#79A7EC"/>
<path d="M186.756 359V145.719H256.482C279.627 145.719 297.01 150.504 308.631 160.074C320.35 169.645 326.209 183.805 326.209 202.555C326.209 212.516 323.377 221.354 317.713 229.068C312.049 236.686 304.334 242.594 294.568 246.793C306.092 250.016 315.174 256.168 321.814 265.25C328.553 274.234 331.922 284.977 331.922 297.477C331.922 316.617 325.721 331.656 313.318 342.594C300.916 353.531 283.387 359 260.73 359H186.756ZM214.881 259.244V336.002H261.316C274.402 336.002 284.705 332.633 292.225 325.895C299.842 319.059 303.65 309.684 303.65 297.77C303.65 272.086 289.686 259.244 261.756 259.244H214.881ZM214.881 236.686H257.361C269.666 236.686 279.48 233.609 286.805 227.457C294.227 221.305 297.938 212.955 297.938 202.408C297.938 190.689 294.52 182.193 287.684 176.92C280.848 171.549 270.447 168.863 256.482 168.863H214.881V236.686Z" fill="white"/>
</svg>
